<mxfile host="Electron" modified="2024-04-13T10:31:52.530Z" agent="Mozilla/5.0 (Macintosh; Intel Mac OS X 10_15_7) AppleWebKit/537.36 (KHTML, like Gecko) draw.io/24.1.0 Chrome/120.0.6099.109 Electron/28.1.0 Safari/537.36" etag="Huf714Oh9E-FBX_T9PdK" version="24.1.0" type="device">
  <diagram name="페이지-1" id="vfVBYeQ10DACYNuR6yBe">
    <mxGraphModel dx="1114" dy="894" grid="1" gridSize="10" guides="1" tooltips="1" connect="1" arrows="1" fold="1" page="1" pageScale="1" pageWidth="827" pageHeight="1169" math="0" shadow="0">
      <root>
        <mxCell id="0" />
        <mxCell id="1" parent="0" />
        <mxCell id="5_oBnRJsGbKHmMdYLq7n-1" value="customSum" style="rounded=0;whiteSpace=wrap;html=1;" vertex="1" parent="1">
          <mxGeometry x="120" y="220" width="90" height="30" as="geometry" />
        </mxCell>
        <mxCell id="5_oBnRJsGbKHmMdYLq7n-2" value="main" style="rounded=0;whiteSpace=wrap;html=1;" vertex="1" parent="1">
          <mxGeometry x="120" y="250" width="90" height="30" as="geometry" />
        </mxCell>
        <mxCell id="5_oBnRJsGbKHmMdYLq7n-3" value="customSum" style="rounded=0;whiteSpace=wrap;html=1;" vertex="1" parent="1">
          <mxGeometry x="120" y="190" width="90" height="30" as="geometry" />
        </mxCell>
        <mxCell id="5_oBnRJsGbKHmMdYLq7n-4" value="..." style="rounded=0;whiteSpace=wrap;html=1;" vertex="1" parent="1">
          <mxGeometry x="120" y="160" width="90" height="30" as="geometry" />
        </mxCell>
        <mxCell id="5_oBnRJsGbKHmMdYLq7n-5" value="customSum" style="rounded=0;whiteSpace=wrap;html=1;" vertex="1" parent="1">
          <mxGeometry x="120" y="130" width="90" height="30" as="geometry" />
        </mxCell>
        <mxCell id="5_oBnRJsGbKHmMdYLq7n-6" value="customSum" style="rounded=0;whiteSpace=wrap;html=1;" vertex="1" parent="1">
          <mxGeometry x="403" y="180" width="90" height="70" as="geometry" />
        </mxCell>
        <mxCell id="5_oBnRJsGbKHmMdYLq7n-7" value="main" style="rounded=0;whiteSpace=wrap;html=1;" vertex="1" parent="1">
          <mxGeometry x="403" y="250" width="90" height="30" as="geometry" />
        </mxCell>
        <mxCell id="5_oBnRJsGbKHmMdYLq7n-10" value="" style="curved=1;endArrow=classic;html=1;rounded=0;exitX=1;exitY=0.5;exitDx=0;exitDy=0;entryX=1;entryY=0.5;entryDx=0;entryDy=0;" edge="1" parent="1" source="5_oBnRJsGbKHmMdYLq7n-2" target="5_oBnRJsGbKHmMdYLq7n-1">
          <mxGeometry width="50" height="50" relative="1" as="geometry">
            <mxPoint x="390" y="480" as="sourcePoint" />
            <mxPoint x="440" y="430" as="targetPoint" />
            <Array as="points">
              <mxPoint x="230" y="265" />
              <mxPoint x="240" y="260" />
              <mxPoint x="240" y="250" />
            </Array>
          </mxGeometry>
        </mxCell>
        <mxCell id="5_oBnRJsGbKHmMdYLq7n-11" value="customSum(100000)" style="text;html=1;align=center;verticalAlign=middle;whiteSpace=wrap;rounded=0;" vertex="1" parent="1">
          <mxGeometry x="240" y="244" width="120" height="20" as="geometry" />
        </mxCell>
        <mxCell id="5_oBnRJsGbKHmMdYLq7n-12" value="" style="curved=1;endArrow=classic;html=1;rounded=0;exitX=1;exitY=0.5;exitDx=0;exitDy=0;entryX=1;entryY=0.5;entryDx=0;entryDy=0;" edge="1" parent="1">
          <mxGeometry width="50" height="50" relative="1" as="geometry">
            <mxPoint x="210" y="233" as="sourcePoint" />
            <mxPoint x="210" y="203" as="targetPoint" />
            <Array as="points">
              <mxPoint x="230" y="233" />
              <mxPoint x="240" y="228" />
              <mxPoint x="240" y="218" />
            </Array>
          </mxGeometry>
        </mxCell>
        <mxCell id="5_oBnRJsGbKHmMdYLq7n-13" value="customSum(99999)" style="text;html=1;align=center;verticalAlign=middle;whiteSpace=wrap;rounded=0;" vertex="1" parent="1">
          <mxGeometry x="240" y="210" width="120" height="20" as="geometry" />
        </mxCell>
        <mxCell id="5_oBnRJsGbKHmMdYLq7n-14" value="" style="curved=1;endArrow=classic;html=1;rounded=0;exitX=1;exitY=0.5;exitDx=0;exitDy=0;entryX=1;entryY=0.5;entryDx=0;entryDy=0;" edge="1" parent="1">
          <mxGeometry width="50" height="50" relative="1" as="geometry">
            <mxPoint x="211" y="176" as="sourcePoint" />
            <mxPoint x="211" y="146" as="targetPoint" />
            <Array as="points">
              <mxPoint x="231" y="176" />
              <mxPoint x="241" y="171" />
              <mxPoint x="241" y="161" />
            </Array>
          </mxGeometry>
        </mxCell>
        <mxCell id="5_oBnRJsGbKHmMdYLq7n-15" value="customSum(...)" style="text;html=1;align=center;verticalAlign=middle;whiteSpace=wrap;rounded=0;" vertex="1" parent="1">
          <mxGeometry x="226" y="155" width="120" height="20" as="geometry" />
        </mxCell>
        <mxCell id="5_oBnRJsGbKHmMdYLq7n-16" value="" style="curved=1;endArrow=classic;html=1;rounded=0;exitX=1;exitY=0.5;exitDx=0;exitDy=0;entryX=1;entryY=0.5;entryDx=0;entryDy=0;" edge="1" parent="1">
          <mxGeometry width="50" height="50" relative="1" as="geometry">
            <mxPoint x="493" y="275" as="sourcePoint" />
            <mxPoint x="493" y="245" as="targetPoint" />
            <Array as="points">
              <mxPoint x="513" y="275" />
              <mxPoint x="523" y="270" />
              <mxPoint x="523" y="260" />
            </Array>
          </mxGeometry>
        </mxCell>
        <mxCell id="5_oBnRJsGbKHmMdYLq7n-17" value="customSum(100000)" style="text;html=1;align=center;verticalAlign=middle;whiteSpace=wrap;rounded=0;" vertex="1" parent="1">
          <mxGeometry x="521" y="256" width="120" height="20" as="geometry" />
        </mxCell>
        <mxCell id="5_oBnRJsGbKHmMdYLq7n-18" value="" style="curved=1;endArrow=classic;html=1;rounded=0;exitX=1;exitY=0.5;exitDx=0;exitDy=0;entryX=1;entryY=0.614;entryDx=0;entryDy=0;entryPerimeter=0;" edge="1" parent="1" target="5_oBnRJsGbKHmMdYLq7n-6">
          <mxGeometry width="50" height="50" relative="1" as="geometry">
            <mxPoint x="493" y="240" as="sourcePoint" />
            <mxPoint x="493" y="210" as="targetPoint" />
            <Array as="points">
              <mxPoint x="513" y="240" />
              <mxPoint x="523" y="235" />
              <mxPoint x="523" y="225" />
            </Array>
          </mxGeometry>
        </mxCell>
        <mxCell id="5_oBnRJsGbKHmMdYLq7n-19" value="" style="curved=1;endArrow=classic;html=1;rounded=0;exitX=1;exitY=0.5;exitDx=0;exitDy=0;entryX=1;entryY=0.614;entryDx=0;entryDy=0;entryPerimeter=0;" edge="1" parent="1">
          <mxGeometry width="50" height="50" relative="1" as="geometry">
            <mxPoint x="492" y="199" as="sourcePoint" />
            <mxPoint x="492" y="182" as="targetPoint" />
            <Array as="points">
              <mxPoint x="512" y="199" />
              <mxPoint x="522" y="194" />
              <mxPoint x="522" y="184" />
            </Array>
          </mxGeometry>
        </mxCell>
        <mxCell id="5_oBnRJsGbKHmMdYLq7n-20" value="customSum(99999)" style="text;html=1;align=center;verticalAlign=middle;whiteSpace=wrap;rounded=0;" vertex="1" parent="1">
          <mxGeometry x="520" y="220" width="120" height="20" as="geometry" />
        </mxCell>
        <mxCell id="5_oBnRJsGbKHmMdYLq7n-21" value="customSum(...)" style="text;html=1;align=center;verticalAlign=middle;whiteSpace=wrap;rounded=0;" vertex="1" parent="1">
          <mxGeometry x="507" y="179" width="120" height="20" as="geometry" />
        </mxCell>
        <mxCell id="5_oBnRJsGbKHmMdYLq7n-22" value="&lt;span&gt;[일반 재귀]&lt;/span&gt;" style="text;html=1;align=center;verticalAlign=middle;whiteSpace=wrap;rounded=0;fontStyle=1" vertex="1" parent="1">
          <mxGeometry x="135" y="310" width="60" height="30" as="geometry" />
        </mxCell>
        <mxCell id="5_oBnRJsGbKHmMdYLq7n-23" value="&lt;span&gt;[꼬리 재귀]&lt;/span&gt;" style="text;html=1;align=center;verticalAlign=middle;whiteSpace=wrap;rounded=0;fontStyle=1" vertex="1" parent="1">
          <mxGeometry x="418" y="310" width="60" height="30" as="geometry" />
        </mxCell>
      </root>
    </mxGraphModel>
  </diagram>
</mxfile>
